<svg version="1" xmlns="http://www.w3.org/2000/svg" width="346.667" height="346.667" viewBox="0 0 260.000000 260.000000"><path d="M109.5 1.6C54.3 10 9.7 55 1.6 110.1c-9.4 63.7 27.1 123.2 87.7 143.4 67.8 22.6 141.5-14.6 164.2-82.8 22.6-67.8-14.6-141.5-82.8-164.2-18.5-6.1-41.3-8-61.2-4.9zM121 59.5V66h-4.6c-2.5 0-6.1.7-7.9 1.6-5.9 2.7-6.5 5.6-6.5 28.8V117h61.1l-.3-21.8c-.4-27.2-.6-27.7-12.8-29.1l-5.5-.6-.3-6.3-.3-6.2H223v12.8l-6 .4c-7.1.5-10.9 2.9-12.7 7.9-1.7 4.8-1.7 104 0 108.8 1.8 5 5.6 7.4 12.7 7.9l6 .4V204h-79.1l.3-6.3.3-6.2 5.5-.6c7-.8 8.5-1.5 10.7-4.7 1.6-2.4 1.8-5.6 2.1-28.5l.3-25.7H102v24.5c0 28 .5 30.6 6.4 33 2 .8 5.6 1.5 8.1 1.5h4.5v13H42v-13h4.5c5.9 0 10.9-2.1 13.2-5.6 1.7-2.6 1.8-6.2 1.8-56.9 0-50.7-.1-54.3-1.8-56.9-2.3-3.5-7.3-5.6-13.2-5.6H42V53h79v6.5z"/></svg>